<?xml version="1.0" encoding="utf-8"?>
<!-- Generator: Adobe Illustrator 27.4.1, SVG Export Plug-In . SVG Version: 6.00 Build 0)  -->
<svg version="1.1" id="Layer_1" xmlns="http://www.w3.org/2000/svg" xmlns:xlink="http://www.w3.org/1999/xlink" x="0px" y="0px"
	 viewBox="0 0 100 47.8" style="enable-background:new 0 0 100 47.8;" xml:space="preserve">
<style type="text/css">
	.st0{fill:#221F20;}
	.st1{fill:#FFFFFF;}
</style>
<path class="st0" d="M50.2,19.9"/>
<g>
	<path class="st1" d="M85.5,12.6c-0.2-0.1-0.2-0.4-0.1-0.5c1.3-1.2,6.3-5.7,9.2-6.8C94.5,5.1,81.7,10,82.6,18.9c0,0-0.5,1.3-1.2,0
		c-0.8-1.4,2.3-6.5,2.9-7.5c0.1-0.1,0.1-0.2,0-0.3c-0.3-0.9-1.8-5.6,3.1-8.3c0,0,1.6-1.1,6-0.8c2.7,0.2,4.7-1,5.7-1.8
		c0.4-0.3,1,0,1,0.5c-0.1,2.7-0.9,8.2-5.6,11.8C94.4,12.5,90.9,16,85.5,12.6z"/>
	<g>
		<path class="st1" d="M20.9,0.8l-0.3,1.9c-0.1,0.4-0.5,0.7-0.9,0.7H11c-0.2,0-0.5,0.2-0.5,0.4l-1,5.5c0,0.2,0.1,0.4,0.4,0.4h5.3
			c0.1,0,0.2-0.1,0.2-0.1l0.2-1.3c0-0.1,0-0.1-0.1-0.1h-2.9c-0.2,0-0.4-0.2-0.4-0.4l0.4-2.3c0-0.2,0.3-0.4,0.5-0.4h6.2
			c0.4,0,0.7,0.3,0.6,0.7l-1.2,6.8c-0.1,0.4-0.5,0.7-0.9,0.7c0,0-0.4,0-0.4,0l-9.3,0c-2,0-3.2-1.6-2.9-3.5l1.1-6.3
			C6.8,1.6,8.7,0,10.6,0h9.7C20.7,0,21,0.4,20.9,0.8z"/>
		<path class="st1" d="M21.4,13.3c-0.4,0-0.7-0.3-0.6-0.7l2.1-11.8C23,0.3,23.4,0,23.8,0h9.5c1.9,0,3.2,1.6,2.9,3.5l-0.5,3
			c-0.2,1.3-1.2,2.5-2.4,3c-0.1,0-0.1,0.1-0.1,0.2l1.6,2.7c0.2,0.4-0.1,0.8-0.5,0.8c-1.3,0-2.1,0-2.7,0c-0.9,0-1.2,0-1.4-0.4
			l-1.4-2.8c-0.1-0.1-0.2-0.2-0.3-0.2l-3,0c-0.1,0-0.2,0.1-0.2,0.1l-0.4,2.5c-0.1,0.4-0.5,0.7-0.9,0.7L21.4,13.3L21.4,13.3z
			 M25.9,6.5c0,0.1,0,0.1,0.1,0.1h4.9c0.4,0,0.7-0.3,0.8-0.7l0.4-2c0.1-0.4-0.2-0.7-0.6-0.7h-4.9c-0.1,0-0.2,0.1-0.2,0.1L25.9,6.5z"
			/>
		<path class="st1" d="M36.5,12.6l2.1-11.8C38.7,0.3,39.1,0,39.6,0h11.2c0.2,0,0.4,0.2,0.4,0.4L50.7,3c0,0.2-0.3,0.4-0.5,0.4h-7.8
			c-0.1,0-0.2,0.1-0.2,0.1l-0.2,1.4c0,0.1,0,0.1,0.1,0.1h6.3c0.2,0,0.4,0.2,0.4,0.4l-0.4,2.3c0,0.2-0.3,0.4-0.5,0.4h-6.3
			c-0.1,0-0.2,0.1-0.2,0.1l-0.2,1.3c0,0.1,0,0.1,0.1,0.1H49c0.2,0,0.4,0.2,0.4,0.4l-0.5,2.6c0,0.2-0.3,0.4-0.5,0.4H37.1
			C36.7,13.3,36.5,13,36.5,12.6z"/>
		<path class="st1" d="M50.7,12.6l2.1-11.8C52.9,0.3,53.3,0,53.7,0h11.2c0.2,0,0.4,0.2,0.4,0.4L64.8,3c0,0.2-0.3,0.4-0.5,0.4h-7.8
			c-0.1,0-0.2,0.1-0.2,0.1l-0.2,1.4c0,0.1,0,0.1,0.1,0.1h6.3c0.2,0,0.4,0.2,0.4,0.4l-0.4,2.3c0,0.2-0.3,0.4-0.5,0.4h-6.3
			c-0.1,0-0.2,0.1-0.2,0.1l-0.2,1.3c0,0.1,0,0.1,0.1,0.1h7.8c0.2,0,0.4,0.2,0.4,0.4L63,12.9c0,0.2-0.3,0.4-0.5,0.4H51.3
			C50.9,13.3,50.6,13,50.7,12.6z"/>
		<path class="st1" d="M70,5.9l-1.2,6.7c-0.1,0.4-0.5,0.7-0.9,0.7h-2.5c-0.4,0-0.7-0.3-0.6-0.7L67,0.8C67.1,0.4,67.5,0,67.9,0H71
			c0.2,0,0.4,0.1,0.5,0.3L75.3,7c0.1,0.1,0.3,0.1,0.3-0.1l1.1-6.2C76.9,0.4,77.3,0,77.7,0h2.5c0.4,0,0.7,0.3,0.6,0.7l-2.1,11.8
			c-0.1,0.4-0.5,0.7-0.9,0.7H75c-0.2,0-0.4-0.1-0.5-0.3l-4.1-7.2C70.3,5.7,70.1,5.8,70,5.9z"/>
	</g>
	<g>
		<path class="st1" d="M24.4,17.6l-0.5,2.8c-0.1,0.6-0.7,1.1-1.3,1.1h-5.4c-0.1,0-0.2,0.1-0.3,0.2l-2.4,13.3
			c-0.1,0.6-0.7,1.1-1.3,1.1H9.4c-0.6,0-1-0.5-0.9-1.1l2.4-13.3c0-0.1-0.1-0.2-0.2-0.2H5.3c-0.6,0-1-0.5-0.9-1.1l0.5-2.8
			C5,17,5.6,16.5,6.2,16.5h17.2C24.1,16.5,24.5,17,24.4,17.6z"/>
		<path class="st1" d="M23,35.1l3.2-17.5c0.1-0.6,0.7-1.1,1.3-1.1H44c0.4,0,0.6,0.3,0.5,0.7l-0.7,3.7c-0.1,0.4-0.4,0.7-0.8,0.7H31.6
			c-0.1,0-0.2,0.1-0.3,0.2l-0.4,2c0,0.1,0.1,0.2,0.2,0.2h9.3c0.4,0,0.6,0.3,0.5,0.7L40.4,28c-0.1,0.4-0.4,0.7-0.8,0.7h-9.3
			c-0.1,0-0.2,0.1-0.3,0.2l-0.3,1.9c0,0.1,0.1,0.2,0.2,0.2h11.5c0.4,0,0.6,0.3,0.5,0.7l-0.7,3.8c-0.1,0.4-0.4,0.7-0.8,0.7H23.9
			C23.3,36.2,22.9,35.7,23,35.1z"/>
		<path class="st1" d="M42.6,34.8L54,17.6c0.6-0.8,1.3-1,2.3-1v0c0,0,0,0,0,0v0c0.3,0,0.6,0,0.9,0c0,0,0.1,0,0.1,0
			c0.1,0,0.2,0,0.3,0c0.4,0,0.9,0,1.4,0c0,0,1,0,1.3,1L66,34.8c0.1,0.3,0,0.6-0.2,0.9c-0.2,0.3-0.5,0.5-0.8,0.5h-4.5
			c-0.3,0-0.6-0.2-0.7-0.5L59.4,34H50l-0.4,0.6l-0.7,1c-0.2,0.3-0.6,0.5-0.9,0.5h-4.7c-0.3,0-0.6-0.2-0.7-0.5
			C42.3,35.4,42.4,35.1,42.6,34.8z M53,29.3h5l-1.6-5.1L53,29.3z"/>
		<path class="st1" d="M76.5,16.5c0.4,0,0.8,0.2,0.9,0.6l3.4,12.2c0.1,0.2,0.4,0.3,0.5,0.1l8.2-12.2c0.3-0.4,0.7-0.6,1.1-0.6h4.3
			c0.6,0,1,0.5,0.9,1.1l-3.2,17.5c-0.1,0.6-0.7,1.1-1.3,1.1h-3.3c-0.6,0-1-0.5-0.9-1.1l1.3-7l-5,7.4c-0.3,0.4-0.7,0.6-1.1,0.6h-4.4
			c-0.4,0-0.8-0.2-0.9-0.6l-2.3-7.4l-1.3,6.9c-0.1,0.6-0.7,1.1-1.3,1.1h-3.3c-0.6,0-1-0.5-0.9-1.1l3.2-17.5c0.1-0.6,0.7-1.1,1.3-1.1
			H76.5z"/>
	</g>
	<g>
		<path class="st1" d="M59.7,42.2H58c-0.1,0-0.1,0.1-0.2,0.1L57.5,44c0,0.1,0,0.1,0.1,0.1h1.7c0.1,0,0.1-0.1,0.2-0.1l0.3-1.7
			C59.8,42.3,59.8,42.2,59.7,42.2z"/>
		<path class="st1" d="M43,42.2h-1.5c0,0,0,0-0.1,0l-0.2,0.9c0,0,0,0,0,0h1.5c0.1,0,0.2-0.1,0.2-0.2l0.1-0.6
			C43.2,42.3,43.1,42.2,43,42.2z"/>
		<path class="st1" d="M22,42.2h-1.5c0,0,0,0-0.1,0l-0.2,0.9c0,0,0,0,0,0h1.5c0.1,0,0.2-0.1,0.2-0.2l0.1-0.6
			C22.2,42.3,22.1,42.2,22,42.2z"/>
		<polygon class="st1" points="68.7,43.8 69.8,43.8 69.4,42.8 		"/>
		<path class="st1" d="M91.3,38.7H2.9c-0.6,0-1.2,0.3-1.3,0.8l-1.5,7.2c-0.1,0.6,0.5,1.1,1.3,1.1h88.5c0.6,0,1.2-0.3,1.3-0.8
			l1.5-7.2C92.7,39.2,92.1,38.7,91.3,38.7z M12.5,42.3l-0.2,0.9c-0.1,0.6-0.7,1-1.3,1l-1.8,0c0,0,0,0-0.1,0L9.1,45
			c0,0.1-0.1,0.2-0.3,0.2H8c-0.1,0-0.2-0.1-0.2-0.2l0.6-3.6c0-0.1,0.1-0.2,0.3-0.2h2.9C12.2,41.2,12.6,41.7,12.5,42.3z M17.5,45.1
			c0,0.1-0.1,0.1-0.2,0.1h-0.9c-0.1,0-0.1,0-0.1-0.1l-0.1-0.3h-1.9l-0.1,0.1L14,45.1c0,0.1-0.1,0.1-0.2,0.1h-1c-0.1,0-0.1,0-0.1-0.1
			c0-0.1,0-0.1,0-0.2l2.3-3.5c0.1-0.2,0.3-0.2,0.5-0.2v0c0,0,0,0,0,0v0c0.1,0,0.1,0,0.2,0c0,0,0,0,0,0c0,0,0,0,0.1,0
			c0.1,0,0.2,0,0.3,0c0,0,0.2,0,0.3,0.2l1.2,3.5C17.6,45,17.6,45.1,17.5,45.1z M23.4,42.3l-0.2,0.9c-0.1,0.4-0.4,0.7-0.7,0.9
			c0,0,0,0,0,0.1L23,45c0.1,0.1,0,0.2-0.1,0.2c-0.4,0-0.6,0-0.8,0c-0.3,0-0.4,0-0.4-0.1l-0.4-0.8c0,0-0.1-0.1-0.1-0.1l-0.9,0
			c0,0,0,0-0.1,0L20,45c0,0.1-0.1,0.2-0.3,0.2H19c-0.1,0-0.2-0.1-0.2-0.2l0.6-3.6c0-0.1,0.1-0.2,0.3-0.2h2.9
			C23.1,41.2,23.5,41.7,23.4,42.3z M29.1,41.4l-1.9,1.8c0,0,0,0,0,0.1l1.2,1.8c0,0.1,0,0.1-0.1,0.1h-1.2c-0.1,0-0.1,0-0.2-0.1
			l-0.7-1.1l-0.5,0.5c0,0,0,0.1,0,0.1L25.6,45c0,0.1-0.1,0.2-0.3,0.2h-0.8c-0.1,0-0.2-0.1-0.2-0.2l0.6-3.6c0-0.1,0.1-0.2,0.3-0.2
			h0.8c0.1,0,0.2,0.1,0.2,0.2L26,42.8c0,0,0,0.1,0.1,0l1.6-1.6c0.1-0.1,0.1-0.1,0.2-0.1H29C29.1,41.2,29.2,41.3,29.1,41.4z M34,42.1
			c0,0.1-0.1,0.1-0.2,0.1h-2.4c0,0,0,0-0.1,0l-0.1,0.4c0,0,0,0,0,0h1.9c0.1,0,0.1,0.1,0.1,0.1l-0.1,0.7c0,0.1-0.1,0.1-0.2,0.1h-1.9
			c0,0,0,0-0.1,0l-0.1,0.4c0,0,0,0,0,0h2.4c0.1,0,0.1,0.1,0.1,0.1l-0.1,0.8c0,0.1-0.1,0.1-0.2,0.1h-3.4c-0.1,0-0.2-0.1-0.2-0.2
			l0.6-3.6c0-0.1,0.1-0.2,0.3-0.2H34c0.1,0,0.1,0.1,0.1,0.1L34,42.1z M39.1,42c0,0.1-0.1,0.2-0.3,0.2h-1.1c0,0,0,0-0.1,0L37.1,45
			c0,0.1-0.1,0.2-0.3,0.2h-0.8c-0.1,0-0.2-0.1-0.2-0.2l0.5-2.7c0,0,0,0,0,0h-1.1c-0.1,0-0.2-0.1-0.2-0.2l0.1-0.6
			c0-0.1,0.1-0.2,0.3-0.2H39c0.1,0,0.2,0.1,0.2,0.2L39.1,42z M44.4,42.3l-0.2,0.9c-0.1,0.4-0.4,0.7-0.7,0.9c0,0,0,0,0,0.1L44,45
			c0.1,0.1,0,0.2-0.1,0.2c-0.4,0-0.6,0-0.8,0c-0.3,0-0.4,0-0.4-0.1l-0.4-0.8c0,0-0.1-0.1-0.1-0.1l-0.9,0c0,0,0,0-0.1,0L41,45
			c0,0.1-0.1,0.2-0.3,0.2h-0.8c-0.1,0-0.2-0.1-0.2-0.2l0.6-3.6c0-0.1,0.1-0.2,0.3-0.2h2.9C44.1,41.2,44.5,41.7,44.4,42.3z
			 M49.6,42.1c0,0.1-0.1,0.1-0.2,0.1h-2.4c0,0,0,0-0.1,0L47,42.7c0,0,0,0,0,0h1.9c0.1,0,0.1,0.1,0.1,0.1l-0.1,0.7
			c0,0.1-0.1,0.1-0.2,0.1h-1.9c0,0,0,0-0.1,0l-0.1,0.4c0,0,0,0,0,0h2.4c0.1,0,0.1,0.1,0.1,0.1l-0.1,0.8c0,0.1-0.1,0.1-0.2,0.1h-3.4
			c-0.1,0-0.2-0.1-0.2-0.2l0.6-3.6c0-0.1,0.1-0.2,0.3-0.2h3.4c0.1,0,0.1,0.1,0.1,0.1L49.6,42.1z M54.7,45c0,0.1-0.1,0.2-0.3,0.2
			h-0.8c-0.1,0-0.1,0-0.2-0.1L52.2,43c0,0-0.1,0-0.1,0l-0.4,2c0,0.1-0.1,0.2-0.3,0.2h-0.8c-0.1,0-0.2-0.1-0.2-0.2l0.6-3.6
			c0-0.1,0.1-0.2,0.3-0.2h1c0.1,0,0.1,0,0.2,0.1l1.1,2c0,0,0.1,0,0.1,0l0.3-1.9c0-0.1,0.1-0.2,0.3-0.2h0.8c0.1,0,0.2,0.1,0.2,0.2
			L54.7,45z M61.1,42.2l-0.3,1.9c-0.1,0.6-0.7,1-1.3,1h-2.3c-0.6,0-1-0.5-0.9-1l0.4-1.9c0.1-0.6,0.7-1,1.3-1h2.3
			C60.8,41.2,61.2,41.7,61.1,42.2z M64.6,45.2h-1.4c-0.1,0-0.2-0.1-0.2-0.2c-0.4-2.3-0.3-1.7-0.6-3.7c0-0.1,0.1-0.2,0.2-0.2h0.9
			c0.1,0,0.2,0.1,0.2,0.1l0.4,2.5c0,0.1,0.1,0.1,0.1,0l1.4-2.5c0-0.1,0.1-0.1,0.2-0.1h0.9c0.1,0,0.1,0.1,0.1,0.2
			c-1.1,2-0.8,1.5-2,3.7C64.8,45.2,64.7,45.2,64.6,45.2z M71.4,45.1c0,0.1-0.1,0.1-0.2,0.1h-0.9c-0.1,0-0.1,0-0.1-0.1L70,44.8h-1.9
			L68,44.9l-0.2,0.2c0,0.1-0.1,0.1-0.2,0.1h-1c-0.1,0-0.1,0-0.1-0.1c0-0.1,0-0.1,0-0.2l2.3-3.5c0.1-0.2,0.3-0.2,0.5-0.2v0
			c0,0,0,0,0,0v0c0.1,0,0.1,0,0.2,0c0,0,0,0,0,0c0,0,0,0,0.1,0c0.1,0,0.2,0,0.3,0c0,0,0.2,0,0.3,0.2l1.2,3.5
			C71.4,45,71.4,45.1,71.4,45.1z M76.3,42c0,0.1-0.1,0.2-0.3,0.2h-1.1c0,0,0,0-0.1,0L74.4,45c0,0.1-0.1,0.2-0.3,0.2h-0.8
			c-0.1,0-0.2-0.1-0.2-0.2l0.5-2.7c0,0,0,0,0,0h-1.1c-0.1,0-0.2-0.1-0.2-0.2l0.1-0.6c0-0.1,0.1-0.2,0.3-0.2h3.5
			c0.1,0,0.2,0.1,0.2,0.2L76.3,42z M78.2,45c0,0.1-0.1,0.2-0.3,0.2h-0.8C77,45.2,77,45.1,77,45l0.6-3.6c0-0.1,0.1-0.2,0.3-0.2h0.8
			c0.1,0,0.2,0.1,0.2,0.2L78.2,45z M84,42.1c0,0.1-0.1,0.1-0.2,0.1h-2.4c0,0,0,0-0.1,0l-0.1,0.4c0,0,0,0,0,0h1.9
			c0.1,0,0.1,0.1,0.1,0.1l-0.1,0.7c0,0.1-0.1,0.1-0.2,0.1h-1.9c0,0,0,0-0.1,0l-0.1,0.4c0,0,0,0,0,0h2.4c0.1,0,0.1,0.1,0.1,0.1
			l-0.1,0.8c0,0.1-0.1,0.1-0.2,0.1h-3.4c-0.1,0-0.2-0.1-0.2-0.2l0.6-3.6c0-0.1,0.1-0.2,0.3-0.2H84c0.1,0,0.1,0.1,0.1,0.1L84,42.1z"
			/>
		<polygon class="st1" points="14.9,43.8 15.9,43.8 15.6,42.8 		"/>
		<path class="st1" d="M11.1,42.2H9.6c0,0,0,0-0.1,0l-0.2,0.9c0,0,0,0,0,0h1.5c0.1,0,0.2-0.1,0.2-0.2l0.1-0.6
			C11.3,42.3,11.2,42.2,11.1,42.2z"/>
	</g>
</g>
</svg>
